<?xml version="1.0" encoding="UTF-8" standalone="no"?>
<!-- Created with Inkscape (http://www.inkscape.org/) -->

<svg
   width="192.58812mm"
   height="145.10541mm"
   viewBox="0 0 192.58812 145.10541"
   version="1.1"
   id="svg1"
   xml:space="preserve"
   inkscape:version="1.4.2 (ebf0e940, 2025-05-08)"
   sodipodi:docname="logo.svg"
   inkscape:export-filename="logo.svg"
   inkscape:export-xdpi="96"
   inkscape:export-ydpi="96"
   xmlns:inkscape="http://www.inkscape.org/namespaces/inkscape"
   xmlns:sodipodi="http://sodipodi.sourceforge.net/DTD/sodipodi-0.dtd"
   xmlns:xlink="http://www.w3.org/1999/xlink"
   xmlns="http://www.w3.org/2000/svg"
   xmlns:svg="http://www.w3.org/2000/svg"><sodipodi:namedview
     id="namedview1"
     pagecolor="#ffffff"
     bordercolor="#cccccc"
     borderopacity="1"
     inkscape:showpageshadow="0"
     inkscape:pageopacity="1"
     inkscape:pagecheckerboard="0"
     inkscape:deskcolor="#d1d1d1"
     inkscape:document-units="mm"
     inkscape:lockguides="false"
     inkscape:zoom="1.6208546"
     inkscape:cx="423.23352"
     inkscape:cy="595.98189"
     inkscape:window-width="1512"
     inkscape:window-height="945"
     inkscape:window-x="0"
     inkscape:window-y="37"
     inkscape:window-maximized="0"
     inkscape:current-layer="layer1"
     inkscape:export-bgcolor="#ffffffaf"><inkscape:page
       x="0"
       y="-7.458912e-15"
       width="192.58812"
       height="145.10542"
       id="page2"
       margin="0"
       bleed="0" /></sodipodi:namedview><defs
     id="defs1"><linearGradient
       id="swatch23"
       inkscape:swatch="solid"><stop
         style="stop-color:#ffffff;stop-opacity:1;"
         offset="0"
         id="stop23" /></linearGradient><inkscape:path-effect
       effect="bspline"
       id="path-effect23"
       is_visible="true"
       lpeversion="1.3"
       weight="33.333333"
       steps="2"
       helper_size="0"
       apply_no_weight="true"
       apply_with_weight="true"
       only_selected="false"
       uniform="false" /><inkscape:path-effect
       effect="bspline"
       id="path-effect22"
       is_visible="true"
       lpeversion="1.3"
       weight="33.333333"
       steps="2"
       helper_size="0"
       apply_no_weight="true"
       apply_with_weight="true"
       only_selected="false"
       uniform="false" /><inkscape:path-effect
       effect="fillet_chamfer"
       id="path-effect20"
       is_visible="true"
       lpeversion="1"
       nodesatellites_param="F,0,0,1,0,0,0,1 @ F,0,0,1,0,0,0,1 @ F,0,0,1,0,0,0,1 @ F,0,0,1,0,0,0,1 @ F,0,0,1,0,0,0,1 @ F,0,0,1,0,6.172396,0,1 @ F,0,0,1,0,0,0,1 @ F,0,0,1,0,0,0,1 @ F,0,0,1,0,0,0,1 @ F,0,0,1,0,0,0,1 @ F,0,0,1,0,0,0,1 @ F,0,0,1,0,9.3087466,0,1 @ F,0,0,1,0,0,0,1 @ F,0,0,1,0,0,0,1 @ F,0,0,1,0,0,0,1 @ F,0,0,1,0,0,0,1 @ F,0,0,1,0,0,0,1 @ F,0,0,1,0,0,0,1 @ F,0,0,1,0,0,0,1 @ F,0,0,1,0,0,0,1 @ F,0,0,1,0,0,0,1 @ F,0,1,1,0,1.9086194,0,1 @ F,0,0,1,0,0,0,1 @ F,0,0,1,0,0,0,1 @ F,0,0,1,0,0,0,1 @ F,0,0,1,0,0,0,1 @ F,0,0,1,0,0,0,1 @ F,0,0,1,0,0,0,1 @ F,0,0,1,0,1.9086194,0,1 @ F,0,0,1,0,0,0,1 @ F,0,0,1,0,0,0,1 @ F,0,0,1,0,3.5576936,0,1 @ F,0,0,1,0,5.0127678,0,1 @ F,0,0,1,0,0,0,1 @ F,0,0,1,0,0,0,1 @ F,0,0,1,0,0,0,1 @ F,0,0,1,0,0,0,1 @ F,0,0,1,0,0,0,1 @ F,0,0,1,0,0,0,1 @ F,0,0,1,0,0,0,1"
       radius="0"
       unit="px"
       method="auto"
       mode="F"
       chamfer_steps="1"
       flexible="false"
       use_knot_distance="true"
       apply_no_radius="true"
       apply_with_radius="true"
       only_selected="false"
       hide_knots="false" /><inkscape:path-effect
       effect="bspline"
       id="path-effect19"
       is_visible="true"
       lpeversion="1.3"
       weight="33.333333"
       steps="2"
       helper_size="0"
       apply_no_weight="true"
       apply_with_weight="true"
       only_selected="false"
       uniform="false" /><inkscape:path-effect
       effect="bspline"
       id="path-effect18"
       is_visible="true"
       lpeversion="1.3"
       weight="33.333333"
       steps="2"
       helper_size="0"
       apply_no_weight="true"
       apply_with_weight="true"
       only_selected="false"
       uniform="false" /><inkscape:path-effect
       effect="bspline"
       id="path-effect16"
       is_visible="true"
       lpeversion="1.3"
       weight="33.333333"
       steps="2"
       helper_size="0"
       apply_no_weight="true"
       apply_with_weight="true"
       only_selected="false"
       uniform="false" /><linearGradient
       id="swatch10"
       inkscape:swatch="solid"><stop
         style="stop-color:#ffffff;stop-opacity:1;"
         offset="0"
         id="stop11" /></linearGradient><linearGradient
       inkscape:collect="always"
       xlink:href="#swatch10"
       id="linearGradient23"
       x1="9.436429"
       y1="116.31738"
       x2="199.01712"
       y2="116.31738"
       gradientUnits="userSpaceOnUse" /><linearGradient
       inkscape:collect="always"
       xlink:href="#swatch10"
       id="linearGradient2"
       gradientUnits="userSpaceOnUse"
       x1="9.436429"
       y1="116.31738"
       x2="199.01712"
       y2="116.31738" /><linearGradient
       inkscape:collect="always"
       xlink:href="#swatch10"
       id="linearGradient3"
       gradientUnits="userSpaceOnUse"
       x1="9.436429"
       y1="116.31738"
       x2="199.01712"
       y2="116.31738" /><linearGradient
       inkscape:collect="always"
       xlink:href="#swatch10"
       id="linearGradient4"
       gradientUnits="userSpaceOnUse"
       x1="9.436429"
       y1="116.31738"
       x2="199.01712"
       y2="116.31738" /><linearGradient
       inkscape:collect="always"
       xlink:href="#swatch10"
       id="linearGradient5"
       gradientUnits="userSpaceOnUse"
       x1="9.436429"
       y1="116.31738"
       x2="199.01712"
       y2="116.31738" /><linearGradient
       inkscape:collect="always"
       xlink:href="#swatch10"
       id="linearGradient6"
       gradientUnits="userSpaceOnUse"
       x1="9.436429"
       y1="116.31738"
       x2="199.01712"
       y2="116.31738" /></defs><g
     inkscape:label="圖層 1"
     inkscape:groupmode="layer"
     id="layer1"
     transform="translate(-3.5881497,-144.29861)"><g
       id="g23"
       transform="translate(-4.3441603,100.22748)"
       style="stroke:url(#linearGradient23);stroke-width:5;stroke-dasharray:none"
       inkscape:export-filename="g23.svg"
       inkscape:export-xdpi="96"
       inkscape:export-ydpi="96"><path
         style="fill:none;fill-opacity:1;fill-rule:evenodd;stroke:url(#linearGradient2);stroke-width:5;stroke-dasharray:none;stroke-opacity:1"
         d="M 18.282536,139.56757 Z"
         id="path15"
         inkscape:original-d="M 18.282536,139.56757 Z"
         inkscape:path-effect="#path-effect16" /><path
         style="fill:none;fill-opacity:1;fill-rule:evenodd;stroke:url(#linearGradient3);stroke-width:5;stroke-dasharray:none;stroke-opacity:1"
         d="m 71.171302,75.905172 c -0.788978,2.693409 -1.577956,5.386815 -4.835895,6.740325 -3.257939,1.353511 -8.98482,1.367117 -12.508018,-1.122246 -3.523197,-2.489363 -4.842696,-7.481676 -2.020072,-11.759858 2.822625,-4.278181 9.787328,-7.842166 16.2896,-8.30467 6.502271,-0.462505 12.541991,2.176444 16.269313,7.359291 3.727322,5.182846 5.142035,12.909351 2.911152,20.11891 -2.230883,7.209559 -8.107348,13.902196 -12.950143,16.459626 -4.842794,2.55744 -8.651613,0.97951 -11.100145,-2.23079 -2.448532,-3.210299 -3.536766,-8.052931 -3.6728,-13.929592 -0.136034,-5.876662 0.680132,-12.786862 1.496318,-19.697234"
         id="path17"
         sodipodi:nodetypes="ccccccccccc"
         inkscape:original-d="m 71.171302,75.905172 c -0.788978,2.693409 -1.577956,5.386815 -2.366936,8.080229 -5.726898,0.01361 -11.453779,0.02721 -17.18067,0.04082 -1.319504,-4.992333 -2.639003,-9.984646 -3.958512,-14.976997 6.964758,-3.564012 13.929461,-7.127997 20.894192,-10.691995 6.039812,2.638989 12.079532,5.277938 18.119435,7.916967 1.414741,7.726664 2.829454,15.453169 4.24416,23.179642 -5.876472,6.692645 -11.752939,13.385282 -17.629588,20.078132 -3.808939,-1.57798 -7.617755,-3.15592 -11.426582,-4.73385 -1.088239,-4.842659 -2.176472,-9.685291 -3.264745,-14.528097 0.816204,-6.910517 1.63237,-13.820717 2.448556,-20.731089"
         inkscape:path-effect="#path-effect18" /><path
         style="fill:none;fill-opacity:1;fill-rule:evenodd;stroke:url(#linearGradient4);stroke-width:5;stroke-dasharray:none;stroke-opacity:1"
         d="m 20.567853,133.69105 c -1.251484,0.65295 -2.502945,1.30588 -3.230723,3.37359 -0.727778,2.06771 -0.931822,5.55005 -1.571168,8.24346 -0.639346,2.69342 -1.713985,4.59783 -2.999475,7.42726 -1.285491,2.82944 -2.7817965,6.58381 -2.19685,10.31113 0.294573,1.87704 1.116948,3.74715 2.187433,5.53738 1.747821,2.92298 5.227295,7.32078 7.909267,9.41425 1.152337,0.89948 2.345616,1.54671 3.628769,1.83452 2.911122,0.65296 6.284548,-0.54406 8.379462,-3.12869 2.094913,-2.58463 2.911083,-6.55665 3.727267,-10.52875 0.925009,3.04709 1.849996,6.0941 5.033193,8.81478 3.183197,2.72068 8.624183,5.11472 12.596364,4.76103 1.152414,-0.10261 2.181155,-0.4365 3.086895,-0.99104 4.261611,-2.60917 5.140087,-12.01394 5.14002,-17.14739 -4.7e-5,-3.65673 -0.195778,-7.62726 -0.391511,-11.59784 0,8.86921 -10e-7,17.73823 1.863659,22.67625 1.863659,4.93802 5.590865,5.94464 9.263659,6.35273 3.672794,0.4081 7.291171,0.21766 8.964386,-3.65929 1.673215,-3.87696 1.401164,-11.43994 0.04082,-17.15336 -1.360338,-5.71342 -3.808789,-9.57653 -7.1008,-11.91631 -3.292011,-2.33977 -7.427183,-3.15592 -10.011816,-1.85 -2.584634,1.30592 -3.618427,4.73376 -2.149264,6.17572 1.469163,1.44195 5.441179,0.89784 9.141216,-0.76174 3.165965,-1.42003 6.13274,-3.65674 9.070764,-6.01133 0.822432,-0.65912 1.461187,-0.34413 1.434629,0.70964 -0.235938,9.36155 -0.194387,18.51674 4.213234,24.42754 4.706758,6.31195 14.391762,8.92364 20.322822,7.61772 5.93107,-1.30592 8.10746,-6.52929 6.31182,-13.79348 -1.79564,-7.26419 -7.56311,-16.56832 -4.08065,-21.13905 3.48246,-4.57072 16.21442,-4.4075 22.28152,-0.0816 6.0671,4.32587 5.46859,12.81384 4.84283,18.7449 -0.54781,5.19231 -1.11644,8.42444 1.21469,11.88715 0.58814,0.87364 1.75005,2.13714 2.52546,2.85062 4.06631,3.7415 11.19499,7.77566 18.32404,9.89741 7.99877,2.38059 15.99729,2.35339 23.4245,-0.72088 6.03523,-2.49809 11.6932,-7.00813 14.45597,-11.69828 0.99441,-1.68814 1.89746,-4.8213 1.78568,-6.7741 -0.1607,-2.80746 -1.32286,-5.51318 -2.70005,-8.09485 -1.30293,-2.44249 -3.55853,-6.32564 -4.79437,-8.80266 -1.59491,-3.19674 -3.05186,-6.36585 -5.06078,-10.00993 -2.92467,-5.30523 -7.01914,-11.61697 -11.18854,-15.69797 -4.16941,-4.08099 -8.41342,-5.93095 -11.54219,-8.9781 -3.12877,-3.04716 -5.14194,-7.29113 -8.95088,-12.92293 -3.80895,-5.631792 -9.41321,-12.65072 -12.43314,-20.118943 -3.01994,-7.468223 -3.45525,-15.385125 -5.16923,-21.397686 -1.71399,-6.012562 -4.70664,-10.120634 -7.69932,-14.228748"
         id="path18"
         sodipodi:nodetypes="ccccccccccccccccccccsccccccccccccccccccc"
         inkscape:original-d="m 20.567853,133.69105 c -1.251482,0.65295 -2.502946,1.30588 -3.75445,1.95884 -0.204051,3.48246 -0.408095,6.9648 -0.612143,10.44721 -1.074644,1.90442 -2.149283,3.80883 -3.223922,5.71324 -1.496341,3.75446 -2.9926459,7.50883 -4.4890174,11.26336 2.6662614,3.70012 5.3324334,7.40011 7.9986104,11.10011 2.448532,2.50294 4.897057,5.00587 7.345661,7.50889 3.373634,-1.1971 6.747061,-2.39412 10.12069,-3.59121 0.8162,-3.97217 2.448553,-11.91629 2.448553,-11.91629 0,0 1.849996,6.0941 2.775028,9.14126 5.441362,2.3942 10.882346,4.78824 16.323692,7.18243 2.503018,-3.10157 5.005883,-6.20295 7.5089,-9.30451 -0.380894,-7.7267 -1.142659,-23.17964 -1.142659,-23.17964 0,0 -10e-7,17.73823 -10e-7,26.60762 3.727319,1.00665 7.454525,2.01327 11.181731,3.01989 3.618382,-0.19043 7.236759,-0.38087 10.855257,-0.57131 -0.272069,-7.56347 -0.544119,-15.12645 -0.816188,-22.68993 -2.448608,-3.86336 -4.897061,-7.72647 -7.34566,-11.58982 -4.135421,-0.8162 -8.270593,-1.63235 -12.406006,-2.44855 -1.033854,3.42804 -2.067648,6.85588 -3.101504,10.28393 3.972183,-0.54414 7.944199,-1.08825 11.916298,-1.63238 3.427975,-2.77503 10.283925,-8.32509 10.283925,-8.32509 0,0 -0.544118,20.02354 -0.816184,30.0356 9.68558,2.61185 19.370586,5.22353 29.056186,7.83538 2.17653,-5.22369 4.35292,-10.44706 6.52945,-15.67075 -5.76781,-9.30469 -11.53528,-18.60882 -17.303095,-27.91351 12.732735,0.16324 25.464695,0.32646 38.197445,0.4897 -0.59855,8.4885 -1.19706,16.97647 -1.79561,25.46497 -0.65296,3.37363 -1.30589,6.74705 -1.95885,10.12068 7.99877,4.78838 15.99706,9.57647 23.99583,14.36485 7.99877,-0.0272 15.99729,-0.0544 23.99582,-0.0816 6.85589,-6.12133 13.71176,-12.24264 20.56786,-18.36416 -3.67291,-5.38693 -7.34566,-10.77363 -11.01849,-16.16044 -1.75479,-4.29854 -3.50956,-8.59707 -5.26435,-12.89563 -4.09456,-6.31189 -8.18903,-12.62363 -12.28362,-18.93557 -4.24422,-1.85005 -8.48823,-3.70001 -12.73247,-5.55007 -2.0133,-4.24425 -4.02647,-8.48822 -6.03977,-12.73247 -5.60459,-7.019341 -11.20885,-14.038268 -16.8134,-21.057566 -0.43532,-7.91715 -0.87063,-15.834052 -1.30594,-23.751082 -2.99266,-4.108095 -5.98531,-8.216166 -8.97799,-12.324279"
         inkscape:path-effect="#path-effect19;#path-effect20" /><path
         style="fill:none;fill-opacity:1;fill-rule:evenodd;stroke:url(#linearGradient5);stroke-width:5;stroke-dasharray:none;stroke-opacity:1"
         d="m 93.045048,82.271412 c 1.360309,2.176493 2.720589,4.352941 3.074276,8.107466 0.353688,3.754524 -0.299247,9.086825 -0.952194,14.419232 0.70736,-7.128013 1.414708,-14.255902 2.911074,-18.323294 1.496367,-4.067391 3.781646,-5.074 5.414016,-5.536505 1.63237,-0.462505 2.61177,-0.380888 3.5912,-0.299269"
         id="path21"
         sodipodi:nodetypes="cccccc"
         inkscape:original-d="m 93.045048,82.271412 c 1.360309,2.176493 2.720589,4.352941 4.080924,6.529477 -0.65296,5.332513 -1.958842,15.997221 -1.958842,15.997221 0,0 1.414708,-14.255902 2.12208,-21.38404 2.285361,-1.006645 4.57064,-2.013252 6.85596,-3.019882 0.97942,0.08162 1.95882,0.163235 2.93825,0.244854"
         inkscape:path-effect="#path-effect22" /><path
         style="fill:none;fill-opacity:1;fill-rule:evenodd;stroke:url(#linearGradient6);stroke-width:5;stroke-dasharray:none;stroke-opacity:1"
         d="m 104.63487,98.758342 c -0.4353,1.469138 -0.87059,2.938268 -1.30589,4.407398"
         id="path22"
         transform="translate(-1.1426585,1.6323693)"
         inkscape:original-d="m 104.63487,98.758342 c -0.4353,1.469138 -0.8706,2.938268 -1.30589,4.407398"
         inkscape:path-effect="#path-effect23" /></g></g></svg>
